<svg width="61" height="19" viewBox="0 0 61 19" fill="none" xmlns="http://www.w3.org/2000/svg">
<path d="M13.8184 18H10.3882V8.17334L8.38623 18H5.7373L3.44238 8.17334V18H0.439453V0.495117H5.3833L7.14111 9.57715L8.66699 0.495117H13.8184V18ZM15.6484 15.0093V3.74219C15.6484 1.47168 17.1214 0.336426 20.0674 0.336426C22.9727 0.336426 24.4253 1.46354 24.4253 3.71777V14.9849C24.4253 16.0021 24.0184 16.7874 23.2046 17.3408C22.3989 17.8861 21.3451 18.1587 20.043 18.1587C17.1133 18.1587 15.6484 17.1089 15.6484 15.0093ZM20.6655 15.1924V3.26611C20.6655 2.91618 20.458 2.74121 20.043 2.74121C19.6117 2.74121 19.396 2.91618 19.396 3.26611V15.1924C19.396 15.5423 19.6117 15.7173 20.043 15.7173C20.458 15.7173 20.6655 15.5423 20.6655 15.1924ZM36.0454 0.495117L33.6895 18H28.2451L25.8892 0.495117H29.6367L30.9673 12.7266L32.2856 0.495117H36.0454ZM41.3301 18H37.4849V0.495117H41.3301V18ZM50.6431 18H43.1235V0.495117H50.5942V2.75342H46.9688V7.47754H50.2402V9.60156H46.9688V15.7539H50.6431V18ZM52.2412 10.9688H55.6348V15.29C55.6348 15.5749 55.8138 15.7173 56.1719 15.7173C56.5299 15.7173 56.709 15.5749 56.709 15.29V0.495117H60.5542V15.0093C60.5542 17.1089 59.1016 18.1587 56.1963 18.1587C55.1628 18.1587 54.2432 17.9064 53.4375 17.4019C52.64 16.8973 52.2412 16.234 52.2412 15.4121V10.9688Z" fill="white"/>
</svg>
